<?xml version="1.0" encoding="UTF-8"?>
<svg class="" enable-background="new 0 0 512 512" version="1.1" viewBox="0 0 512 512" xml:space="preserve" xmlns="http://www.w3.org/2000/svg"><g xmlns="http://www.w3.org/2000/svg"><path class="" d="m256.6 256c0-47.128 38.205-85.333 85.333-85.333s85.333 38.206 85.333 85.333c0 47.129-38.206 85.333-85.333 85.333-47.129 0-85.333-38.205-85.333-85.333z" fill="#00bcff" data-original="#00bcff"/><path d="m85.932 426.67c0-47.128 38.205-85.333 85.333-85.333l45.475-24.009 39.858 24.009v85.333c0 47.129-38.205 85.333-85.333 85.333s-85.333-38.205-85.333-85.333z" fill="#00cf7f" data-original="#00cf7f"/><path d="m256.6 0-46.434 80.67 46.434 89.996h84.136c47.129 0 85.333-38.205 85.333-85.333s-38.205-85.333-85.333-85.333z" fill="#ff7361" data-original="#ff7361"/><path d="m84.734 85.333c0 47.128 38.205 85.333 85.333 85.333l45.267 17.484 41.263-17.484v-170.67h-86.531c-47.127 0-85.332 38.205-85.332 85.333z" fill="#ff4d12" data-original="#ff4d12"/><path class="" d="m85.932 256c0 47.129 38.205 85.333 85.333 85.333h85.333v-170.67h-85.333c-47.128 0-85.333 38.206-85.333 85.334z" fill="#b659ff" data-original="#b659ff"/></g></svg>